# xmcd CD database file
#
# Track frame offsets:
#	150
#	19340
#	39948
#	56967
#	76415
#	98381
#	119470
#	140898
#	154240
#	176319
#	198501
#	223987
#	243730
#	266810
#	283938
#	303170
#	324038
#
# Disc length: 4721 seconds
#
# Revision: 12
# Processed by: cddbd v1.5.2PL0 Copyright (c) Steve Scherf et al.
# Submitted via: CDex 1.70beta3
#
DISCID=fa126f11
DTITLE=黒夢 - EMI  1994-1998 BEST OR WORST +2  -SOFT DISK-
DYEAR=2009
DGENRE=Rock
TTITLE0=ICE MY LIFE
TTITLE1=優しい悲劇
TTITLE2=Miss MOONLIGHT
TTITLE3=Love Song
TTITLE4=至上のゆりかご
TTITLE5=夢
TTITLE6=KISS
TTITLE7=Walkin' on the edge
TTITLE8=BEAMS
TTITLE9=SEE YOU
TTITLE10=ピストル
TTITLE11=DEAR BLUE
TTITLE12=NITE&DAY
TTITLE13=Spray
TTITLE14=Merry X'mas, I Love You
TTITLE15=MARIA
TTITLE16=REASON OF MYSELF
EXTD=YEAR: 2009
EXTT0=
EXTT1=
EXTT2=
EXTT3=
EXTT4=
EXTT5=
EXTT6=
EXTT7=
EXTT8=
EXTT9=
EXTT10=
EXTT11=
EXTT12=
EXTT13=
EXTT14=
EXTT15=
EXTT16=
PLAYORDER=
